<svg width="328" height="54" viewBox="0 0 328 54" fill="none" xmlns="http://www.w3.org/2000/svg">
<path fill-rule="evenodd" clip-rule="evenodd" d="M0 4C0 1.79086 1.79086 0 4 0H11H317H324C326.209 0 328 1.79086 328 4V50C328 52.2091 326.209 54 324 54H4C1.79086 54 0 52.2091 0 50V4ZM317 0.964286H11H4.5C2.567 0.964286 1 2.53129 1 4.46429V49.5357C1 51.4687 2.56701 53.0357 4.50001 53.0357H323.5C325.433 53.0357 327 51.4687 327 49.5357V4.46429C327 2.53129 325.433 0.964286 323.5 0.964286H317Z" fill="#9E9E9E"/>
</svg>
